<svg width="97" height="36" viewBox="0 0 97 36" fill="none" xmlns="http://www.w3.org/2000/svg">
<rect width="97" height="36" fill="white"/>
<g clip-path="url(#clip0_802_20)">
<circle cx="21" cy="18" r="3" fill="white" stroke="black" stroke-width="2"/>
<line x1="21" y1="16" x2="21" y2="6" stroke="black" stroke-width="2"/>
<path d="M21 7L17 3" stroke="black" stroke-width="2" stroke-linecap="round"/>
<path d="M21 7L25 3" stroke="black" stroke-width="2" stroke-linecap="round"/>
<line x1="21" y1="20" x2="21" y2="30" stroke="black" stroke-width="2"/>
<path d="M21 29L25 33" stroke="black" stroke-width="2" stroke-linecap="round"/>
<path d="M21 29L17 33" stroke="black" stroke-width="2" stroke-linecap="round"/>
<line x1="23" y1="18" x2="33" y2="18" stroke="black" stroke-width="2"/>
<path d="M32 18L36 14" stroke="black" stroke-width="2" stroke-linecap="round"/>
<path d="M32 18L36 22" stroke="black" stroke-width="2" stroke-linecap="round"/>
<line x1="22.8284" y1="16.0208" x2="29.8995" y2="8.94973" stroke="black" stroke-width="2"/>
<path d="M29.1924 9.65686V4.00001" stroke="black" stroke-width="2" stroke-linecap="round"/>
<path d="M29.1924 9.65686H34.8492" stroke="black" stroke-width="2" stroke-linecap="round"/>
<line x1="19.0208" y1="16.0208" x2="11.9497" y2="8.94976" stroke="black" stroke-width="2"/>
<path d="M12.6569 9.65686H7.00001" stroke="black" stroke-width="2" stroke-linecap="round"/>
<path d="M12.6569 9.65686V4.00001" stroke="black" stroke-width="2" stroke-linecap="round"/>
<line x1="19.0208" y1="19.8284" x2="11.9498" y2="26.8995" stroke="black" stroke-width="2"/>
<path d="M12.6569 26.1924V31.8492" stroke="black" stroke-width="2" stroke-linecap="round"/>
<path d="M12.6569 26.1924H7.00001" stroke="black" stroke-width="2" stroke-linecap="round"/>
<line x1="22.8284" y1="19.8284" x2="29.8995" y2="26.8995" stroke="black" stroke-width="2"/>
<path d="M29.1924 26.1924H34.8492" stroke="black" stroke-width="2" stroke-linecap="round"/>
<path d="M29.1924 26.1924V31.8492" stroke="black" stroke-width="2" stroke-linecap="round"/>
<line x1="19" y1="18" x2="9" y2="18" stroke="black" stroke-width="2"/>
<path d="M10 18L6 22" stroke="black" stroke-width="2" stroke-linecap="round"/>
<path d="M10 18L6 14" stroke="black" stroke-width="2" stroke-linecap="round"/>
</g>
<path d="M49.426 25.144C49.102 25.144 48.832 25.072 48.616 24.928C48.412 24.772 48.244 24.544 48.112 24.244L43.414 13.696C43.282 13.396 43.246 13.132 43.306 12.904C43.366 12.676 43.492 12.496 43.684 12.364C43.876 12.232 44.104 12.166 44.368 12.166C44.716 12.166 44.974 12.244 45.142 12.4C45.322 12.544 45.472 12.766 45.592 13.066L49.858 22.948H49.084L53.332 13.048C53.464 12.76 53.62 12.544 53.8 12.4C53.98 12.244 54.232 12.166 54.556 12.166C54.82 12.166 55.036 12.232 55.204 12.364C55.384 12.496 55.498 12.676 55.546 12.904C55.594 13.132 55.552 13.396 55.42 13.696L50.722 24.244C50.59 24.544 50.422 24.772 50.218 24.928C50.026 25.072 49.762 25.144 49.426 25.144ZM60.215 25.18C59.219 25.18 58.361 24.994 57.641 24.622C56.921 24.25 56.363 23.722 55.967 23.038C55.583 22.354 55.391 21.544 55.391 20.608C55.391 19.696 55.577 18.898 55.949 18.214C56.333 17.53 56.855 16.996 57.515 16.612C58.187 16.216 58.949 16.018 59.801 16.018C60.425 16.018 60.983 16.12 61.475 16.324C61.979 16.528 62.405 16.822 62.753 17.206C63.113 17.59 63.383 18.058 63.563 18.61C63.755 19.15 63.851 19.762 63.851 20.446C63.851 20.662 63.773 20.83 63.617 20.95C63.473 21.058 63.263 21.112 62.987 21.112H57.209V19.816H62.267L61.979 20.086C61.979 19.534 61.895 19.072 61.727 18.7C61.571 18.328 61.337 18.046 61.025 17.854C60.725 17.65 60.347 17.548 59.891 17.548C59.387 17.548 58.955 17.668 58.595 17.908C58.247 18.136 57.977 18.466 57.785 18.898C57.605 19.318 57.515 19.822 57.515 20.41V20.536C57.515 21.52 57.743 22.258 58.199 22.75C58.667 23.23 59.351 23.47 60.251 23.47C60.563 23.47 60.911 23.434 61.295 23.362C61.691 23.278 62.063 23.14 62.411 22.948C62.663 22.804 62.885 22.744 63.077 22.768C63.269 22.78 63.419 22.846 63.527 22.966C63.647 23.086 63.719 23.236 63.743 23.416C63.767 23.584 63.731 23.758 63.635 23.938C63.551 24.118 63.401 24.274 63.185 24.406C62.765 24.67 62.279 24.868 61.727 25C61.187 25.12 60.683 25.18 60.215 25.18ZM66.7489 25.144C66.3889 25.144 66.1129 25.048 65.9209 24.856C65.7289 24.652 65.6329 24.364 65.6329 23.992V17.188C65.6329 16.816 65.7289 16.534 65.9209 16.342C66.1129 16.15 66.3829 16.054 66.7309 16.054C67.0789 16.054 67.3489 16.15 67.5409 16.342C67.7329 16.534 67.8289 16.816 67.8289 17.188V18.412L67.6309 17.962C67.8949 17.326 68.3029 16.846 68.8549 16.522C69.4189 16.186 70.0549 16.018 70.7629 16.018C71.4709 16.018 72.0529 16.15 72.5089 16.414C72.9649 16.678 73.3069 17.08 73.5349 17.62C73.7629 18.148 73.8769 18.82 73.8769 19.636V23.992C73.8769 24.364 73.7809 24.652 73.5889 24.856C73.3969 25.048 73.1209 25.144 72.7609 25.144C72.4009 25.144 72.1189 25.048 71.9149 24.856C71.7229 24.652 71.6269 24.364 71.6269 23.992V19.744C71.6269 19.06 71.4949 18.562 71.2309 18.25C70.9789 17.938 70.5829 17.782 70.0429 17.782C69.3829 17.782 68.8549 17.992 68.4589 18.412C68.0749 18.82 67.8829 19.366 67.8829 20.05V23.992C67.8829 24.76 67.5049 25.144 66.7489 25.144ZM79.5462 25.18C78.7782 25.18 78.1002 24.994 77.5122 24.622C76.9362 24.25 76.4862 23.722 76.1622 23.038C75.8382 22.342 75.6762 21.526 75.6762 20.59C75.6762 19.642 75.8382 18.832 76.1622 18.16C76.4862 17.476 76.9362 16.948 77.5122 16.576C78.1002 16.204 78.7782 16.018 79.5462 16.018C80.2782 16.018 80.9142 16.198 81.4542 16.558C82.0062 16.918 82.3782 17.392 82.5702 17.98H82.3722V13.3C82.3722 12.928 82.4682 12.646 82.6602 12.454C82.8522 12.262 83.1282 12.166 83.4882 12.166C83.8482 12.166 84.1242 12.262 84.3162 12.454C84.5202 12.646 84.6222 12.928 84.6222 13.3V23.992C84.6222 24.364 84.5262 24.652 84.3342 24.856C84.1422 25.048 83.8662 25.144 83.5062 25.144C83.1462 25.144 82.8702 25.048 82.6782 24.856C82.4862 24.652 82.3902 24.364 82.3902 23.992V22.588L82.5882 23.128C82.4082 23.752 82.0422 24.25 81.4902 24.622C80.9382 24.994 80.2902 25.18 79.5462 25.18ZM80.1762 23.47C80.6202 23.47 81.0102 23.362 81.3462 23.146C81.6822 22.93 81.9402 22.612 82.1202 22.192C82.3122 21.76 82.4082 21.226 82.4082 20.59C82.4082 19.63 82.2042 18.916 81.7962 18.448C81.3882 17.968 80.8482 17.728 80.1762 17.728C79.7322 17.728 79.3422 17.836 79.0062 18.052C78.6702 18.256 78.4062 18.574 78.2142 19.006C78.0342 19.426 77.9442 19.954 77.9442 20.59C77.9442 21.538 78.1482 22.258 78.5562 22.75C78.9642 23.23 79.5042 23.47 80.1762 23.47ZM88.1072 25.144C87.7352 25.144 87.4472 25.048 87.2432 24.856C87.0512 24.652 86.9552 24.364 86.9552 23.992V17.188C86.9552 16.816 87.0512 16.534 87.2432 16.342C87.4352 16.15 87.7052 16.054 88.0532 16.054C88.4012 16.054 88.6712 16.15 88.8632 16.342C89.0552 16.534 89.1512 16.816 89.1512 17.188V18.322H88.9712C89.1392 17.602 89.4692 17.056 89.9612 16.684C90.4532 16.312 91.1072 16.09 91.9232 16.018C92.1752 15.994 92.3732 16.06 92.5172 16.216C92.6732 16.36 92.7632 16.588 92.7872 16.9C92.8112 17.2 92.7392 17.446 92.5712 17.638C92.4152 17.818 92.1752 17.926 91.8512 17.962L91.4552 17.998C90.7232 18.07 90.1712 18.298 89.7992 18.682C89.4272 19.054 89.2412 19.582 89.2412 20.266V23.992C89.2412 24.364 89.1452 24.652 88.9532 24.856C88.7612 25.048 88.4792 25.144 88.1072 25.144Z" fill="#131313"/>
<defs>
<clipPath id="clip0_802_20">
<rect width="32" height="32" fill="white" transform="translate(5 2)"/>
</clipPath>
</defs>
</svg>
